<svg xmlns="http://www.w3.org/2000/svg" viewBox="0 0 97.06 117.47"><defs><style>.cls-1{fill:#00cec8;}</style></defs><g id="Capa_2" data-name="Capa 2"><g id="Capa_2-2" data-name="Capa 2"><path class="cls-1" d="M77.41,51.21a1.72,1.72,0,0,0,2-1.34A31.62,31.62,0,1,0,76.58,58a1.72,1.72,0,1,0-3.06-1.58,28.21,28.21,0,1,1,3.12-12.92,28.45,28.45,0,0,1-.57,5.69,1.72,1.72,0,0,0,1.34,2Z"/><path class="cls-1" d="M67.68,37.07a1.71,1.71,0,0,0-1.39-1.17L55.07,34.29l-5-10.2a1.73,1.73,0,0,0-3.09,0l-5,10.2L30.78,35.9a1.74,1.74,0,0,0-1,3L38,46.76,36,58a1.73,1.73,0,0,0,2.5,1.82l10-5.31,10,5.31A1.73,1.73,0,0,0,61.05,58l-1.94-11.2,8.13-7.91a1.75,1.75,0,0,0,.44-1.78ZM56.06,44.92a1.74,1.74,0,0,0-.5,1.53l1.5,8.64L49.34,51a1.76,1.76,0,0,0-1.61,0L40,55.09l1.5-8.64a1.72,1.72,0,0,0-.5-1.53l-6.27-6.1,8.65-1.25a1.72,1.72,0,0,0,1.3-.94l3.85-7.87,3.85,7.87a1.72,1.72,0,0,0,1.3.94l8.65,1.25Z"/><path class="cls-1" d="M96.83,102.6,80,73.38A43.43,43.43,0,0,0,27.51,5.44a1.73,1.73,0,0,0,1.67,3,40.07,40.07,0,1,1-6.34,4.38,1.72,1.72,0,0,0-2.21-2.64A43.54,43.54,0,0,0,17.1,73.42L12.33,81.7a1.72,1.72,0,0,0,3,1.72l4.33-7.52a43.34,43.34,0,0,0,18.44,9.81l-14.85,25.8-3.8-12a1.72,1.72,0,0,0-2-1.16l-12.25,2.7L11.3,90.4a1.72,1.72,0,1,0-3-1.73l-8.08,14a1.74,1.74,0,0,0,1.86,2.55l14.52-3.2,4.51,14.22a1.73,1.73,0,0,0,3.13.34L41.63,86.44a43.61,43.61,0,0,0,6.9.55,44.14,44.14,0,0,0,6.95-.56l10.44,18.12a1.72,1.72,0,0,0,1.49.87,1.79,1.79,0,0,0,.86-.23,1.74,1.74,0,0,0,.63-2.36L59,85.69a43.26,43.26,0,0,0,18.42-9.83l14.43,25.08L79.64,98.25a1.71,1.71,0,0,0-2,1.16l-3.8,12-.92-1.6a1.72,1.72,0,1,0-3,1.73l2.87,5a1.73,1.73,0,0,0,3.13-.34L80.44,102,95,105.15a1.74,1.74,0,0,0,1.86-2.55Z"/></g></g></svg>