<svg xmlns="http://www.w3.org/2000/svg" xmlns:xlink="http://www.w3.org/1999/xlink" viewBox="0 0 579.73 301.48"><defs><style>.cls-1{fill:none;}.cls-2{fill:#0f9cbc;}.cls-3{fill:#00cec8;}.cls-4{clip-path:url(#clip-path);}.cls-5{fill:url(#Degradado_sin_nombre_82);}.cls-6{fill:url(#Degradado_sin_nombre_85);}.cls-7{fill:#0f93b3;stroke:#0f93b3;stroke-miterlimit:10;stroke-width:0.74px;}.cls-8{fill:#999;}</style><clipPath id="clip-path" transform="translate(0 13.72)"><circle class="cls-1" cx="130.78" cy="125.57" r="123.27" transform="translate(-50.49 129.25) rotate(-45)"/></clipPath><radialGradient id="Degradado_sin_nombre_82" cx="143.44" cy="159.38" r="70.8" gradientTransform="translate(1099.74 15.94) rotate(90) scale(1 6)" gradientUnits="userSpaceOnUse"><stop offset="0" stop-color="#d1d1d1"/><stop offset="0.76" stop-color="#e9eaeb"/><stop offset="1" stop-color="#f5f5f5"/></radialGradient><radialGradient id="Degradado_sin_nombre_85" cx="130.66" cy="151.44" r="42.2" gradientUnits="userSpaceOnUse"><stop offset="0" stop-color="#bdbdbd" stop-opacity="0"/><stop offset="1" stop-color="#c2c2c2"/></radialGradient></defs><g id="Capa_2" data-name="Capa 2"><g id="Capa_2-2" data-name="Capa 2"><path class="cls-2" d="M341.17,82a7.49,7.49,0,0,1-3.47-.77,8.64,8.64,0,0,1-3-3.12l-7.73-12a13.32,13.32,0,0,0-2.11-2.58,10.69,10.69,0,0,0-2.16-1.6,9.09,9.09,0,0,0-2.64-.86,24.54,24.54,0,0,0-2.93-.36c-.89-.05-2.11-.08-3.65-.08h-6.78V82H304V31h17.76a20.94,20.94,0,0,1,7.45,1.27,15,15,0,0,1,5.42,3.38,14.8,14.8,0,0,1,3.2,4.71,14,14,0,0,1,1.1,5.47A14.31,14.31,0,0,1,337.5,52a14,14,0,0,1-4.14,5.1A11.77,11.77,0,0,1,329.58,59a23.58,23.58,0,0,1-5.27,1v.08a12.81,12.81,0,0,1,4.94,4.51l7.81,12.11a6.75,6.75,0,0,0,1.83,2.06,4.23,4.23,0,0,0,2.28.53h.48V82ZM306.71,57.92h15.1a18.06,18.06,0,0,0,6.49-1.1,12.19,12.19,0,0,0,4.53-2.88,13,13,0,0,0,2.53-3.87,11.12,11.12,0,0,0,0-8.67,11.85,11.85,0,0,0-7.17-6.66,18.29,18.29,0,0,0-6.34-1h-15.1Z" transform="translate(0 13.72)"/><path class="cls-2" d="M364.62,46.47a16.45,16.45,0,0,1,12.31,5.33,17.83,17.83,0,0,1,5.12,12.81,18.32,18.32,0,0,1-2.33,9.08,17.6,17.6,0,0,1-6.35,6.58,17,17,0,0,1-17.51,0,17.57,17.57,0,0,1-6.34-6.58,18.22,18.22,0,0,1-2.33-9.08A17.83,17.83,0,0,1,352.3,51.8,16.46,16.46,0,0,1,364.62,46.47ZM349.9,64.61a15,15,0,0,0,4.33,10.86,14.23,14.23,0,0,0,20.77,0,15.82,15.82,0,0,0,0-21.75,14.15,14.15,0,0,0-20.77,0A15.18,15.18,0,0,0,349.9,64.61Z" transform="translate(0 13.72)"/><path class="cls-2" d="M405.86,82.69a16.53,16.53,0,0,1-8.77-2.46,17.63,17.63,0,0,1-6.35-6.62,18.22,18.22,0,0,1-2.31-9,17.9,17.9,0,0,1,5.1-12.8,16.43,16.43,0,0,1,12.33-5.34,15.65,15.65,0,0,1,8.6,2.6,17.33,17.33,0,0,1,6.11,6.84V31h2.72V82h-2.24l-.29-8.68h-.26a17.93,17.93,0,0,1-6.09,6.75A15.54,15.54,0,0,1,405.86,82.69Zm0-2.72a13.83,13.83,0,0,0,10.38-4.53,15.78,15.78,0,0,0,0-21.72,14.14,14.14,0,0,0-20.76,0,15.76,15.76,0,0,0,0,21.72A13.83,13.83,0,0,0,405.86,80Z" transform="translate(0 13.72)"/><path class="cls-2" d="M433.27,36.05a2.37,2.37,0,0,1,2.36-2.35,2.29,2.29,0,0,1,1.65.7,2.21,2.21,0,0,1,.72,1.65,2.44,2.44,0,0,1-2.37,2.38,2.26,2.26,0,0,1-1.67-.71A2.35,2.35,0,0,1,433.27,36.05Zm1.06,11.12h2.72V82h-2.72Z" transform="translate(0 13.72)"/><path class="cls-2" d="M450.7,79.16c0,.1,0,.15.14.15V82A2.82,2.82,0,0,1,448,79.16V31h2.72Z" transform="translate(0 13.72)"/><path class="cls-2" d="M464.34,79.16a.13.13,0,0,0,.15.15V82a2.82,2.82,0,0,1-2.86-2.87V31h2.71Z" transform="translate(0 13.72)"/><path class="cls-2" d="M487.28,82.69q-6.87,0-10.79-3.24a10.14,10.14,0,0,1-3.93-8.19,9.36,9.36,0,0,1,3.95-7.62,14.68,14.68,0,0,1,9.41-3.12H502.1V57.24c0-2.14-1.17-4-3.52-5.63A14.76,14.76,0,0,0,490,49.18a21.8,21.8,0,0,0-11.56,3.07L477,50a24,24,0,0,1,13-3.55,17.58,17.58,0,0,1,10.44,3.1q4.4,3.1,4.39,7.65V82h-2.35l-.3-7.4h-.07A15.83,15.83,0,0,1,496,80.5,17.67,17.67,0,0,1,487.28,82.69ZM502.1,63.24H485.92a11.91,11.91,0,0,0-7.58,2.4,7,7,0,0,0-3.06,5.62,7.65,7.65,0,0,0,3.1,6.24q3.09,2.48,8.9,2.47a16,16,0,0,0,5.81-1.08,15.71,15.71,0,0,0,4.75-2.78,13.7,13.7,0,0,0,3.1-3.86A9,9,0,0,0,502.1,68Z" transform="translate(0 13.72)"/><path class="cls-3" d="M319.47,90.74l23.21,36.38,2.57,5.13V90.74h13.44v63.12H344.74L320.89,116l-1-2-1-2.11v41.93H305.52l0-52.71-.92-10.41Z" transform="translate(0 13.72)"/><path class="cls-3" d="M410.15,139.48a7.82,7.82,0,0,0,1.26,3.6,3.27,3.27,0,0,0,2.78,1.24,10.43,10.43,0,0,0,4-.92,12.47,12.47,0,0,0,3.11-1.74l2.76,6.47a20.94,20.94,0,0,1-5.12,4.24,17.92,17.92,0,0,1-6.26,2.27,17,17,0,0,1-2.06.14,11.89,11.89,0,0,1-2.62-.28,13.14,13.14,0,0,1-5.41-2.13,12,12,0,0,1-3.76-4.34,16.75,16.75,0,0,1-2.66,2.53,22.2,22.2,0,0,1-5.41,3.07,19.67,19.67,0,0,1-7.67,1.42q-8.34,0-12-4.88t-3.62-14.38V106.25l13,1.28V132.3a28.11,28.11,0,0,0,.68,6.83,6.31,6.31,0,0,0,6.89,5.23,9.21,9.21,0,0,0,3.73-.75,13.32,13.32,0,0,0,2.6-1.43c.58-.44,1.42-1.13,2.52-2.08-.06-1.26-.09-3.15-.09-5.69l0-27.34h12.94l0,25.92A51.75,51.75,0,0,0,410.15,139.48Z" transform="translate(0 13.72)"/><path class="cls-3" d="M439.33,142.44q2.66,2.06,7.56,2.06a38,38,0,0,0,3.81-.18,44.59,44.59,0,0,0,8-1.79c2.82-.89,5.11-1.68,6.88-2.39l2,7.94A21.13,21.13,0,0,1,462.7,151a45.15,45.15,0,0,1-7.89,2.82,34.46,34.46,0,0,1-9,1.2q-8.26,0-13.19-2.76a15.73,15.73,0,0,1-7.11-8.32q-2.18-5.58-2.18-14.43a34.79,34.79,0,0,1,2.2-13.37,15.23,15.23,0,0,1,7.18-7.8q5-2.58,13.28-2.59,9.41,0,15,4.15t6.06,13c.06.7.09,1.73.09,3.07,0,1.65-.06,3.18-.19,4.59s-.21,2.29-.27,2.66l-30,1.74Q436.67,140.38,439.33,142.44Zm15.13-19.22q0-7.34-8.62-7.34a8.86,8.86,0,0,0-6.56,2.29c-1.53,1.53-2.4,3.86-2.61,7l17.75-.68C454.45,124.18,454.46,123.77,454.46,123.22Z" transform="translate(0 13.72)"/><path class="cls-3" d="M516.18,118.72a96.78,96.78,0,0,1,.53,9.91,30.49,30.49,0,0,1-3,13.94,21.65,21.65,0,0,1-8.62,9.22,26.05,26.05,0,0,1-13.33,3.26l-10.91-.69L473,116.66H469.6v-9.82h15l7.8,37.34q6-.69,8.64-5.11t2.69-12.87v-1.38a55.14,55.14,0,0,0-.46-6q-.47-3.84-1-7.09c-.33-2.17-.55-3.58-.64-4.22l12.94-1.19Q515.65,113.63,516.18,118.72Z" transform="translate(0 13.72)"/><path class="cls-3" d="M565.79,139.3a8,8,0,0,0,1.26,3.73,3.18,3.18,0,0,0,2.73,1.29,10.6,10.6,0,0,0,4.06-.92,12.4,12.4,0,0,0,3.14-1.74l2.75,6.47a20.5,20.5,0,0,1-6.33,5,16.42,16.42,0,0,1-7.52,1.93q-9.09,0-12-8a19.49,19.49,0,0,1-5.48,5.66,14.27,14.27,0,0,1-7.5,2.37c-.37,0-.92,0-1.66,0q-9.67,0-13.14-7.61a41.56,41.56,0,0,1-3.46-17.39q0-11.24,4.24-17.8T541,105.7a15.67,15.67,0,0,1,6.28,1.39,19.06,19.06,0,0,1,5.18,3.19v-4l13,1.24v25.23A51.71,51.71,0,0,0,565.79,139.3Zm-21.52-22.87a6.37,6.37,0,0,0-5.23,2.38,14,14,0,0,0-2.68,5.65,28.15,28.15,0,0,0-.75,6.33,21.32,21.32,0,0,0,1.94,9.08,6.84,6.84,0,0,0,5.58,4.17l.64.05a8.7,8.7,0,0,0,4.91-1.61,12.51,12.51,0,0,0,3.8-3.94v-18.3A11,11,0,0,0,544.27,116.43Z" transform="translate(0 13.72)"/><g class="cls-4"><path class="cls-2" d="M121.89-13.72s25.94,43.83,45.63,58.15c0,0,29.52,19.68,35.78,46.52l3.58,3.57s9.84,15.21,2.68,30.42c0,0-7.16,22.37-26.84,29.52l17,.9v5.36H197s7.15,1.79,7.15,10.74c0,0,2.69,1.79-15.2,35.78,0,0-17.9,64.41-18.79,80.52H70.9V246.18c0-22-1.48-44.63-.28-66.56.25-4.52,1.77-14.8,7.44-16.21a22.46,22.46,0,0,0,6.26-2.69l1.79-3.57s-12.51,0-12.53-20.54c0-3.82,1.42-7.73,1.77-11.54,1.42-15.21,2.21-30-.41-45A264.06,264.06,0,0,0,61.06,31L47.64-8.35" transform="translate(0 13.72)"/><path class="cls-5" d="M115.63,93.63s-.9-5.37,4.47-5.37c0,0,17.89,2.69,33.1,5.37,0,0,18.79,1.79,28.63-2.68,0,0,11.93-6,23,1.49,0,0,24.88,20.89-7.53,53.78a27.28,27.28,0,0,1-8.59,6.88l11.05,1.36,1,7.24s-26,1.71-30.5,24.07l-12.52,41.15-6.27,3.58s2.69-34.89,2.69-42.94,1.79-14.31-8-20.57-61.73-4.48-61.73-4.48v-5.64s-14-2.11-10.88-22.69l1.93-9.24s4.47,17,21.47,9.84c0,0,18.79-7.16,18.79-38.47" transform="translate(0 13.72)"/><path class="cls-6" d="M84.32,157.15s59,5.36,71.57-31.32c0,0,9.84-8,10.73,0,0,0-5.37,31.32,16.1,28.63,0,0-26.73,10.68-28.45,26.16,0,0,1.72-17.2-36.12-17.2-13.27,0-25.22-.33-39.55,0Z" transform="translate(0 13.72)"/></g><path class="cls-3" d="M131.73,258.37c-39.36,0-78.32-18.7-102.93-49.43a131,131,0,0,1-22.37-42A135.11,135.11,0,0,1,.15,119.45c.13-2.67.77-22.17,4-21.56a2,2,0,0,1,.7.33c6.93,4.58,6.51,7.3,6.51,14.93,0,26.75,5.76,55.28,19.11,76.44,14.79,23.47,44,45.74,70.71,53.52C144.36,255.67,197.08,238,225.38,203c23.34-28.85,28.67-66.89,34.37-107.77a127.93,127.93,0,0,1,3.59,26.55c.94,30.63-8.8,61.64-27.66,85.84-24.38,31.26-63.47,50.52-103.11,50.78Z" transform="translate(0 13.72)"/><path class="cls-7" d="M305.8.61H313a6.08,6.08,0,0,1,4.45,1.83,6.09,6.09,0,0,1,1.84,4.44,6.22,6.22,0,0,1-3.12,5.41,6.22,6.22,0,0,1-3.15.82h-6.23v5.75h-1Zm1,1V12.14H313a5.1,5.1,0,0,0,3.74-1.55,5,5,0,0,0,1.56-3.71,5.11,5.11,0,0,0-1.56-3.74A5.11,5.11,0,0,0,313,1.58Z" transform="translate(0 13.72)"/><path class="cls-7" d="M337.18,18.86a2.7,2.7,0,0,1-1.24-.27,3.21,3.21,0,0,1-1.07-1.12l-2.76-4.3a4.78,4.78,0,0,0-.76-.92,3.79,3.79,0,0,0-.77-.58,3.43,3.43,0,0,0-.95-.3,7,7,0,0,0-1-.13c-.32,0-.76,0-1.31,0h-2.42v7.65h-1V.61h6.35a7.46,7.46,0,0,1,2.66.45,5.22,5.22,0,0,1,1.94,1.21A5.41,5.41,0,0,1,336,4a5,5,0,0,1,.39,2,5.1,5.1,0,0,1-2,4.05,4.25,4.25,0,0,1-1.35.67,7.92,7.92,0,0,1-1.89.36v0a4.62,4.62,0,0,1,1.77,1.61L335.71,17a2.42,2.42,0,0,0,.66.73,1.47,1.47,0,0,0,.81.19h.17v1Zm-12.32-8.62h5.4a6.49,6.49,0,0,0,2.32-.39,4.47,4.47,0,0,0,1.62-1,4.66,4.66,0,0,0,.9-1.39,3.9,3.9,0,0,0,.31-1.52,4.13,4.13,0,0,0-.32-1.58A4.51,4.51,0,0,0,334.15,3a4.3,4.3,0,0,0-1.63-1,6.42,6.42,0,0,0-2.26-.37h-5.4Z" transform="translate(0 13.72)"/><path class="cls-7" d="M350.59.37a8.73,8.73,0,0,1,3.57.75,9.25,9.25,0,0,1,2.92,2,9.58,9.58,0,0,1,1.94,3,9.6,9.6,0,0,1-.5,8.33,9.16,9.16,0,0,1-3.33,3.41,9.05,9.05,0,0,1-9.18,0,9.18,9.18,0,0,1-3.31-3.41,9.6,9.6,0,0,1-.5-8.33,9.41,9.41,0,0,1,1.94-3,9.16,9.16,0,0,1,2.9-2A8.67,8.67,0,0,1,350.59.37Zm0,1a7.72,7.72,0,0,0-4.09,1.14,8.13,8.13,0,0,0-3,3.06,8.52,8.52,0,0,0-1.09,4.21A8.38,8.38,0,0,0,343.1,13a8.74,8.74,0,0,0,1.72,2.68,8.26,8.26,0,0,0,2.6,1.79,7.8,7.8,0,0,0,3.17.66,7.88,7.88,0,0,0,3.18-.66,8.37,8.37,0,0,0,2.6-1.79A8.64,8.64,0,0,0,358.12,13a8.48,8.48,0,0,0,0-6.51,8.38,8.38,0,0,0-1.74-2.68,8.12,8.12,0,0,0-2.6-1.8A7.77,7.77,0,0,0,350.59,1.34Z" transform="translate(0 13.72)"/><path class="cls-7" d="M364.38,9.75a9.54,9.54,0,0,1,.71-3.63,9.21,9.21,0,0,1,1.9-3,9,9,0,0,1,2.9-2,8.8,8.8,0,0,1,3.6-.75,9.49,9.49,0,0,1,3.38.61,8.59,8.59,0,0,1,2.83,1.73l-.64.69a7.4,7.4,0,0,0-2.52-1.51,8.49,8.49,0,0,0-3.05-.55,7.82,7.82,0,0,0-4.14,1.14,8,8,0,0,0-2.93,3.06,8.56,8.56,0,0,0-1.07,4.21A8.75,8.75,0,0,0,366.42,14a7.94,7.94,0,0,0,7.07,4.17,6.39,6.39,0,0,0,3.78-1.2,6.83,6.83,0,0,0,2.46-3.13V11.21h-3.85v-1h4.82v8.62h-.8l-.15-3.35h0a7.56,7.56,0,0,1-2.66,2.61,6.91,6.91,0,0,1-3.58,1A9.13,9.13,0,0,1,367,16.38a9.44,9.44,0,0,1-1.9-3A9.77,9.77,0,0,1,364.38,9.75Z" transform="translate(0 13.72)"/><path class="cls-7" d="M399.61,18.86a2.7,2.7,0,0,1-1.24-.27,3.13,3.13,0,0,1-1.07-1.12l-2.77-4.3a4.47,4.47,0,0,0-1.52-1.5,3.43,3.43,0,0,0-.95-.3,7.15,7.15,0,0,0-1.05-.13c-.32,0-.75,0-1.3,0h-2.43v7.65h-1V.61h6.35a7.51,7.51,0,0,1,2.67.45,5.31,5.31,0,0,1,1.94,1.21A5.21,5.21,0,0,1,398.41,4a5.05,5.05,0,0,1,.4,2,5.07,5.07,0,0,1-2,4.05,4,4,0,0,1-1.35.67,7.74,7.74,0,0,1-1.88.36v0a4.76,4.76,0,0,1,1.77,1.61L398.14,17a2.29,2.29,0,0,0,.65.73,1.51,1.51,0,0,0,.82.19h.17v1Zm-12.33-8.62h5.4A6.45,6.45,0,0,0,395,9.85a4.31,4.31,0,0,0,1.62-1,4.7,4.7,0,0,0,.91-1.39,4.09,4.09,0,0,0,.31-1.52,4,4,0,0,0-.33-1.58A4.31,4.31,0,0,0,396.58,3,4.38,4.38,0,0,0,395,2a6.47,6.47,0,0,0-2.27-.37h-5.4Z" transform="translate(0 13.72)"/><path class="cls-7" d="M406.32,14.09,404.37,19l-.92-.31L410.73.37h.73l7.31,18.34-.91.31-2-4.93Zm.39-1h8.79l-4.38-11Z" transform="translate(0 13.72)"/><path class="cls-7" d="M422.48,18.78,424.89.42h.82L434,18,442.29.42h.81l2.41,18.36-1,.16L442.39,2.52,434.54,19.1h-1.07L425.59,2.5l-2.14,16.44Z" transform="translate(0 13.72)"/><path class="cls-7" d="M452.09,14.09l-2,4.93-.92-.31L456.5.37h.72l7.31,18.34-.91.31-2-4.93Zm.38-1h8.79l-4.38-11Z" transform="translate(0 13.72)"/><path class="cls-8" d="M328.61,192.63v11H324V175.18h11a14.26,14.26,0,0,1,3.9.51,8.86,8.86,0,0,1,3.14,1.54,7.23,7.23,0,0,1,2.09,2.74,10.47,10.47,0,0,1,.84,4,9.77,9.77,0,0,1-.56,3.5A7.05,7.05,0,0,1,342.8,190a7.45,7.45,0,0,1-2.39,1.63,11.88,11.88,0,0,1-3,.84l8.8,11.18h-5.67l-8.52-11Zm6.39-4.06a6.27,6.27,0,0,0,3.84-1.06,4.06,4.06,0,0,0,1.43-3.48,3.55,3.55,0,0,0-1.47-3.28,7.17,7.17,0,0,0-3.8-.9h-6.39v8.72Z" transform="translate(0 13.72)"/><path class="cls-8" d="M356.23,204.05a10.64,10.64,0,0,1-3-.44,7.78,7.78,0,0,1-2.66-1.35,6.86,6.86,0,0,1-1.87-2.23,6.57,6.57,0,0,1-.7-3.13v-7.32a6.47,6.47,0,0,1,2.57-5.39,8.31,8.31,0,0,1,2.66-1.33,10.64,10.64,0,0,1,3-.44,10.41,10.41,0,0,1,3,.44,8,8,0,0,1,2.61,1.33,6.61,6.61,0,0,1,1.85,2.23,6.72,6.72,0,0,1,.7,3.16v5.71h-11.9v1.44a2.47,2.47,0,0,0,.32,1.27,3.57,3.57,0,0,0,.83.95,3.41,3.41,0,0,0,1.17.6,4.85,4.85,0,0,0,1.38.2,5.5,5.5,0,0,0,2.23-.46,3.2,3.2,0,0,0,1.63-1.63l3.7,2.13a7.16,7.16,0,0,1-1.47,1.87,10,10,0,0,1-1.85,1.33,8,8,0,0,1-2.07.8A8.6,8.6,0,0,1,356.23,204.05Zm3.86-14.39a2.4,2.4,0,0,0-.32-1.27,2.9,2.9,0,0,0-.86-.92,4,4,0,0,0-1.23-.57,5.51,5.51,0,0,0-1.41-.18,5.64,5.64,0,0,0-1.42.18,3.87,3.87,0,0,0-1.25.57,3,3,0,0,0-.87.94,2.49,2.49,0,0,0-.28,1.33v1.89h7.64Z" transform="translate(0 13.72)"/><path class="cls-8" d="M384.38,189.82v13.83H380V189.86a2.84,2.84,0,0,0-.46-1.51,3.74,3.74,0,0,0-1-1,4.43,4.43,0,0,0-1.41-.59,7,7,0,0,0-1.59-.18,7.34,7.34,0,0,0-1.63.18,4.19,4.19,0,0,0-1.34.55v16.36h-4.43V184.11a13.69,13.69,0,0,1,3.38-1.23,18.84,18.84,0,0,1,3.74-.46,15.06,15.06,0,0,1,3.44.4,8.57,8.57,0,0,1,2.93,1.29,6.51,6.51,0,0,1,2,2.29A7.08,7.08,0,0,1,384.38,189.82Z" transform="translate(0 13.72)"/><path class="cls-8" d="M388.32,189.62a6.61,6.61,0,0,1,.7-3.14,6.84,6.84,0,0,1,1.87-2.23,8.44,8.44,0,0,1,2.65-1.37,10.44,10.44,0,0,1,3-.46,10,10,0,0,1,2.95.46,8.5,8.5,0,0,1,2.64,1.37,6.84,6.84,0,0,1,1.87,2.23,6.61,6.61,0,0,1,.7,3.14v7.24a6.54,6.54,0,0,1-2.57,5.4,7.87,7.87,0,0,1-2.64,1.35,10.29,10.29,0,0,1-2.95.44,10.77,10.77,0,0,1-3-.44,7.82,7.82,0,0,1-2.65-1.35,6.54,6.54,0,0,1-2.57-5.4Zm8.24-2.9a5.37,5.37,0,0,0-1.37.18,4.37,4.37,0,0,0-1.22.55,2.94,2.94,0,0,0-.89.9,2.32,2.32,0,0,0-.34,1.27v7a2.51,2.51,0,0,0,.34,1.31,3.24,3.24,0,0,0,.89,1,4,4,0,0,0,1.22.6,5,5,0,0,0,1.37.2,4.69,4.69,0,0,0,1.31-.2,4,4,0,0,0,1.2-.6,3.37,3.37,0,0,0,.89-1,2.61,2.61,0,0,0,.34-1.31v-7a2.41,2.41,0,0,0-.34-1.27,3.05,3.05,0,0,0-.89-.9,4.38,4.38,0,0,0-1.2-.55A5,5,0,0,0,396.56,186.72Z" transform="translate(0 13.72)"/><path class="cls-8" d="M420.84,182.82h4.71l-7.4,20.83h-4.54l-7.36-20.83h4.66L415.1,195l.68,4.14h.28l.72-4.14Z" transform="translate(0 13.72)"/><path class="cls-8" d="M438.54,189.42a2.53,2.53,0,0,0-.37-1.35,2.94,2.94,0,0,0-1-1,4.33,4.33,0,0,0-1.39-.57,7.21,7.21,0,0,0-1.63-.18,7.07,7.07,0,0,0-2.41.42,5,5,0,0,0-2,1.31l-2.49-2.57a8.3,8.3,0,0,1,3.56-2.5,12.59,12.59,0,0,1,3.88-.6,10.85,10.85,0,0,1,3,.42,8.73,8.73,0,0,1,2.64,1.27A6.09,6.09,0,0,1,443,189.3v13.35a22.53,22.53,0,0,1-3.52,1,21.87,21.87,0,0,1-4.36.42,16.49,16.49,0,0,1-3.18-.3,8,8,0,0,1-2.69-1,5.69,5.69,0,0,1-1.89-1.95,6,6,0,0,1-.73-3.08,6.33,6.33,0,0,1,.67-3,6.16,6.16,0,0,1,1.75-2.07,7.42,7.42,0,0,1,2.47-1.22,10,10,0,0,1,2.83-.4,11.75,11.75,0,0,1,2.22.2,9,9,0,0,1,2,.6ZM435,194.56a4.54,4.54,0,0,0-3,.87,2.74,2.74,0,0,0-1,2.23,2.3,2.3,0,0,0,.32,1.25,2.47,2.47,0,0,0,.86.84,3.78,3.78,0,0,0,1.23.46,6.73,6.73,0,0,0,1.45.14,16.75,16.75,0,0,0,2.05-.12,11.33,11.33,0,0,0,1.69-.32v-4.62a7.61,7.61,0,0,0-1.63-.53A9.63,9.63,0,0,0,435,194.56Z" transform="translate(0 13.72)"/><path class="cls-8" d="M463.62,189.82v13.83h-4.38V189.86a2.93,2.93,0,0,0-.46-1.51,3.65,3.65,0,0,0-1-1,4.28,4.28,0,0,0-1.4-.59,7.18,7.18,0,0,0-1.59-.18,7.27,7.27,0,0,0-1.63.18,4.34,4.34,0,0,0-1.35.55v16.36h-4.42V184.11a13.55,13.55,0,0,1,3.38-1.23,18.84,18.84,0,0,1,3.74-.46,15,15,0,0,1,3.43.4,8.54,8.54,0,0,1,2.94,1.29,6.6,6.6,0,0,1,2,2.29A7.08,7.08,0,0,1,463.62,189.82Z" transform="translate(0 13.72)"/><path class="cls-8" d="M476.25,204.05h-.32a12,12,0,0,1-3-.38,7.87,7.87,0,0,1-2.59-1.19,6,6,0,0,1-1.87-2.15,8.39,8.39,0,0,1-.89-3.27v-7.44a6.57,6.57,0,0,1,.71-3.08,6.78,6.78,0,0,1,1.85-2.25,8.58,8.58,0,0,1,2.63-1.39,9.78,9.78,0,0,1,3-.48,8.68,8.68,0,0,1,3.82.85v-8.13H484v27.3a25.28,25.28,0,0,1-3.94,1.21A18.58,18.58,0,0,1,476.25,204.05Zm.16-17.85a5.72,5.72,0,0,0-2.94.78,3,3,0,0,0-1.48,2.44v7.64a2.86,2.86,0,0,0,.46,1.54,3.26,3.26,0,0,0,1.05,1,4.49,4.49,0,0,0,1.42.56,7.58,7.58,0,0,0,1.65.18,7.24,7.24,0,0,0,3-.56V187.05A5.77,5.77,0,0,0,476.41,186.2Z" transform="translate(0 13.72)"/><path class="cls-8" d="M488,189.62a6.61,6.61,0,0,1,.7-3.14,6.84,6.84,0,0,1,1.87-2.23,8.39,8.39,0,0,1,2.66-1.37,10.32,10.32,0,0,1,3-.46,10.09,10.09,0,0,1,3,.46,8.45,8.45,0,0,1,2.63,1.37,6.84,6.84,0,0,1,1.87,2.23,6.61,6.61,0,0,1,.7,3.14v7.24a6.54,6.54,0,0,1-2.57,5.4,7.82,7.82,0,0,1-2.63,1.35,10.41,10.41,0,0,1-3,.44,10.64,10.64,0,0,1-3-.44,7.78,7.78,0,0,1-2.66-1.35,6.54,6.54,0,0,1-2.57-5.4Zm8.24-2.9a5.43,5.43,0,0,0-1.37.18,4.37,4.37,0,0,0-1.22.55,3.05,3.05,0,0,0-.89.9,2.41,2.41,0,0,0-.34,1.27v7a2.61,2.61,0,0,0,.34,1.31,3.37,3.37,0,0,0,.89,1,4,4,0,0,0,1.22.6,5,5,0,0,0,1.37.2,4.63,4.63,0,0,0,1.31-.2,4.15,4.15,0,0,0,1.21-.6,3.34,3.34,0,0,0,.88-1,2.51,2.51,0,0,0,.34-1.31v-7a2.32,2.32,0,0,0-.34-1.27,3,3,0,0,0-.88-.9,4.58,4.58,0,0,0-1.21-.55A5,5,0,0,0,496.27,186.72Z" transform="translate(0 13.72)"/><path class="cls-8" d="M330.78,241.52a9.58,9.58,0,0,1-2.87-.42,6.07,6.07,0,0,1-2.35-1.33,5.89,5.89,0,0,1-1.57-2.31,9,9,0,0,1-.57-3.38V215.39h4l.41,4.9h4v4h-4V234a4,4,0,0,0,.38,2,2.46,2.46,0,0,0,1,1,3.82,3.82,0,0,0,1.47.42,16.2,16.2,0,0,0,1.75.08v3.86A11.66,11.66,0,0,1,330.78,241.52Z" transform="translate(0 13.72)"/><path class="cls-8" d="M343.73,241.52a12.52,12.52,0,0,1-3.22-.4,7.21,7.21,0,0,1-2.65-1.29,6.23,6.23,0,0,1-1.79-2.25,7.51,7.51,0,0,1-.66-3.29v-14h4.42v14.08a2.85,2.85,0,0,0,.44,1.5,3.37,3.37,0,0,0,1,1,4.53,4.53,0,0,0,1.4.6,6.33,6.33,0,0,0,1.63.2,6.08,6.08,0,0,0,1.59-.2,7.3,7.3,0,0,0,1.43-.52V220.29h4.38v19.5a23.94,23.94,0,0,1-4,1.27A18.17,18.17,0,0,1,343.73,241.52Z" transform="translate(0 13.72)"/><path class="cls-8" d="M363.79,227.05a6.47,6.47,0,0,1,2.57-5.39,8.41,8.41,0,0,1,2.64-1.33,10.46,10.46,0,0,1,3-.44,10.77,10.77,0,0,1,2.48.3,8.72,8.72,0,0,1,2.37.95,7,7,0,0,1,3.23,4.22l-4,1.53a3.29,3.29,0,0,0-1.48-2,4.6,4.6,0,0,0-2.38-.65,5.23,5.23,0,0,0-1.42.19,4.27,4.27,0,0,0-1.27.54,3.26,3.26,0,0,0-.93.88,2.08,2.08,0,0,0-.36,1.21v7.4a2.32,2.32,0,0,0,1.17,2.09,4.88,4.88,0,0,0,2.61.72,5.15,5.15,0,0,0,2.48-.64,3.19,3.19,0,0,0,1.58-2.05l4.1,1.52a7.1,7.1,0,0,1-1.3,2.54,7.32,7.32,0,0,1-2,1.69,8.69,8.69,0,0,1-2.39.94,11,11,0,0,1-2.5.3,10.12,10.12,0,0,1-3-.44,8.2,8.2,0,0,1-2.64-1.33,6.47,6.47,0,0,1-2.57-5.38Z" transform="translate(0 13.72)"/><path class="cls-8" d="M394.23,226.89a2.52,2.52,0,0,0-.36-1.35,3.07,3.07,0,0,0-1-1,4.24,4.24,0,0,0-1.39-.57,7.18,7.18,0,0,0-1.62-.18,7.08,7.08,0,0,0-2.42.42,5,5,0,0,0-2,1.31L383,223a8.36,8.36,0,0,1,3.56-2.5,12.59,12.59,0,0,1,3.88-.6,10.8,10.8,0,0,1,3,.42,8.73,8.73,0,0,1,2.64,1.27,6.09,6.09,0,0,1,2.57,5.19v13.35a22.53,22.53,0,0,1-3.52,1,21.87,21.87,0,0,1-4.36.42,16.49,16.49,0,0,1-3.18-.3,8,8,0,0,1-2.69-1,5.69,5.69,0,0,1-1.89-1.95,6,6,0,0,1-.72-3.08,6.26,6.26,0,0,1,.66-3,6.1,6.1,0,0,1,1.75-2.08,7.71,7.71,0,0,1,2.47-1.22,10.1,10.1,0,0,1,2.84-.4,11.65,11.65,0,0,1,2.21.2,9,9,0,0,1,2,.6ZM390.65,232a4.54,4.54,0,0,0-3,.87,2.78,2.78,0,0,0-1,2.23,2.39,2.39,0,0,0,.32,1.25,2.47,2.47,0,0,0,.86.84,3.86,3.86,0,0,0,1.23.46,6.8,6.8,0,0,0,1.45.14,16.63,16.63,0,0,0,2.05-.12,11.33,11.33,0,0,0,1.69-.32v-4.62a7.61,7.61,0,0,0-1.63-.53A9.63,9.63,0,0,0,390.65,232Z" transform="translate(0 13.72)"/><path class="cls-8" d="M429.61,226.77v14.35h-4.38V226.93a2.29,2.29,0,0,0-1-2.07,4.09,4.09,0,0,0-2.31-.67,4.25,4.25,0,0,0-1.27.19,4.07,4.07,0,0,0-1.12.5,2.48,2.48,0,0,0-.81.8,2,2,0,0,0-.3,1.09v14.35h-4.34V226.85a2.36,2.36,0,0,0-.3-1.23,2.41,2.41,0,0,0-.83-.82,3.72,3.72,0,0,0-1.16-.47,6.7,6.7,0,0,0-1.37-.14,6.31,6.31,0,0,0-1.57.2,5.09,5.09,0,0,0-1.45.65v16.08H403v-19a12.2,12.2,0,0,1,3.26-1.57,13.59,13.59,0,0,1,3.82-.64,10.13,10.13,0,0,1,3.52.6,4.92,4.92,0,0,1,2.55,2.18,5.63,5.63,0,0,1,2.45-2,8.39,8.39,0,0,1,3.26-.73,9.53,9.53,0,0,1,2.79.42,7.87,7.87,0,0,1,2.48,1.27,6.43,6.43,0,0,1,2.45,5.19Z" transform="translate(0 13.72)"/><path class="cls-8" d="M433.51,215.07a2.87,2.87,0,0,1,.82-2.09,2.75,2.75,0,0,1,2.07-.85,3,3,0,0,1,2.09,5,2.84,2.84,0,0,1-2.09.84,2.78,2.78,0,0,1-2.07-.84A2.88,2.88,0,0,1,433.51,215.07Zm5.07,26.05H434V220.33h4.55Z" transform="translate(0 13.72)"/><path class="cls-8" d="M459.48,227.29v13.83H455.1V227.33a2.93,2.93,0,0,0-.46-1.51,3.65,3.65,0,0,0-1.05-1,4.28,4.28,0,0,0-1.4-.59,7.29,7.29,0,0,0-3.22,0,4.34,4.34,0,0,0-1.35.55v16.36H443.2V221.58a14,14,0,0,1,3.38-1.23,18.84,18.84,0,0,1,3.74-.46,15,15,0,0,1,3.43.4,8.71,8.71,0,0,1,2.94,1.29,6.6,6.6,0,0,1,2,2.29A7.08,7.08,0,0,1,459.48,227.29Z" transform="translate(0 13.72)"/><path class="cls-8" d="M474.84,226.89a2.52,2.52,0,0,0-.36-1.35,2.94,2.94,0,0,0-1-1,4.42,4.42,0,0,0-1.39-.57,7.34,7.34,0,0,0-1.63-.18,7,7,0,0,0-2.41.42,4.88,4.88,0,0,0-2,1.31l-2.5-2.57a8.42,8.42,0,0,1,3.56-2.5,12.64,12.64,0,0,1,3.88-.6,10.87,10.87,0,0,1,3,.42,8.67,8.67,0,0,1,2.63,1.27,6.09,6.09,0,0,1,2.57,5.19v13.35a22.8,22.8,0,0,1-7.88,1.4,16.39,16.39,0,0,1-3.17-.3,8.06,8.06,0,0,1-2.7-1,5.88,5.88,0,0,1-1.89-1.95,6,6,0,0,1-.72-3.08,6.26,6.26,0,0,1,.66-3,6.33,6.33,0,0,1,1.75-2.08,7.76,7.76,0,0,1,2.48-1.22,10,10,0,0,1,2.83-.4,11.57,11.57,0,0,1,2.21.2,8.88,8.88,0,0,1,2,.6ZM471.26,232a4.51,4.51,0,0,0-3,.87,2.76,2.76,0,0,0-1.05,2.23,2.39,2.39,0,0,0,.32,1.25,2.59,2.59,0,0,0,.87.84,3.72,3.72,0,0,0,1.22.46,6.8,6.8,0,0,0,1.45.14,16.51,16.51,0,0,0,2-.12,10.85,10.85,0,0,0,1.69-.32v-4.62a7.43,7.43,0,0,0-1.63-.53A9.63,9.63,0,0,0,471.26,232Z" transform="translate(0 13.72)"/><path class="cls-8" d="M491.53,219.89c.35,0,.71,0,1.1,0a9.45,9.45,0,0,1,1.27.2V224a6.17,6.17,0,0,0-1.61-.2H492a5.66,5.66,0,0,0-1.95.42,4,4,0,0,0-1.51,1.11,2.67,2.67,0,0,0-.6,1.77v14h-4.42V227.05a6.56,6.56,0,0,1,1.08-3.82,7.62,7.62,0,0,1,2.78-2.45,6.64,6.64,0,0,1,1.1-.43,12,12,0,0,1,1.23-.28c.4-.06.76-.11,1.08-.14Z" transform="translate(0 13.72)"/></g></g></svg>