<svg xmlns="http://www.w3.org/2000/svg" viewBox="0 0 130.92 91.63"><defs><style>.cls-1{fill:#00cec8;}</style></defs><g id="Capa_2" data-name="Capa 2"><g id="Capa_2-2" data-name="Capa 2"><path class="cls-1" d="M101.43,66.21a7.69,7.69,0,0,1-4.07-1.16l-21-12.57a1.87,1.87,0,0,1,1.86-3.25l.06,0L99.29,61.85A4.08,4.08,0,0,0,103.74,55L84.19,41.79c-.33-.23-.71-.49-1.12-.75A1.87,1.87,0,1,1,85,37.82l.09.06c.45.28.86.56,1.22.81l19.55,13.23a7.82,7.82,0,0,1-4.41,14.29Z"/><path class="cls-1" d="M85.61,85.51a7.89,7.89,0,0,1-3.68-.91l-13.45-7a1.87,1.87,0,0,1,1.74-3.31l13.44,7A4.27,4.27,0,0,0,88.13,74l-.2-.14L74.09,65.09a1.87,1.87,0,0,1,2-3.15l13.84,8.81a8,8,0,0,1,2.45,11.06c-.08.13-.16.26-.25.38a8.07,8.07,0,0,1-6.53,3.32Z"/><path class="cls-1" d="M73.32,91.63a8.18,8.18,0,0,1-3.63-.86L45.47,78.65a35.93,35.93,0,0,1-6.65-4.32l-7.54-6.21c-.71-.59-1.39-1.2-2.05-1.83L16,53.55a1.87,1.87,0,0,1,2.59-2.69h0L31.83,63.6c.59.57,1.2,1.11,1.83,1.63l7.53,6.21a32.25,32.25,0,0,0,6,3.86L71.36,87.42a4.45,4.45,0,0,0,5.8-1.71l2.64-4.44A1.87,1.87,0,1,1,83,83.17l-2.63,4.45a8.2,8.2,0,0,1-7.06,4Z"/><path class="cls-1" d="M37.69,24.72A25.12,25.12,0,0,1,27,22.16a1.87,1.87,0,0,1,1.68-3.35h0a20.38,20.38,0,0,0,12.22,1.87l.22,0,.61,0a30.07,30.07,0,0,1,7-.24,1.87,1.87,0,1,1-.22,3.74,27.34,27.34,0,0,0-6.39.22l-.63.05a20.09,20.09,0,0,1-3.79.34Z"/><path class="cls-1" d="M85.23,42.12a1.84,1.84,0,0,1-1-.29L68.43,31.89a5.58,5.58,0,0,0-5.69-.14l-8.91,5-2.34,1.82a1.85,1.85,0,0,1-.33.21,18.17,18.17,0,0,1-11.34,2,5.46,5.46,0,0,1-3.06-8.93l5.56-6.48a21.79,21.79,0,0,1,2-2,57.31,57.31,0,0,1,13.54-9.23A18.77,18.77,0,0,1,69,12.64l11.13,1.8c11.89,1.35,15.53-1.65,15.9-2a1.87,1.87,0,1,1,2.6,2.69l-.07.06c-1.49,1.37-6.3,4.39-18.94,2.95L68.45,16.34a15.1,15.1,0,0,0-9,1.2,53.7,53.7,0,0,0-12.67,8.64,18.14,18.14,0,0,0-1.61,1.67L39.6,34.33a1.72,1.72,0,0,0,.15,2.43,1.68,1.68,0,0,0,.79.39,14.38,14.38,0,0,0,8.8-1.64l2.3-1.79a1.82,1.82,0,0,1,.23-.15l9-5.08a9.31,9.31,0,0,1,9.52.24l15.81,9.94a1.87,1.87,0,0,1,.59,2.58,1.89,1.89,0,0,1-1.59.87Z"/><path class="cls-1" d="M103.91,54.74A1.86,1.86,0,0,1,102,52.88a2.24,2.24,0,0,1,.08-.57C104,46.17,113,42.05,113.4,41.88a1.87,1.87,0,1,1,1.54,3.41c-2.18,1-8.08,4.37-9.24,8.12A1.87,1.87,0,0,1,103.91,54.74Z"/><path class="cls-1" d="M122.24,30.24a1.87,1.87,0,0,1-1.62-.94L119,26.38a1.87,1.87,0,0,1,3.19-2l.06.11,1.66,2.92a1.87,1.87,0,0,1-.68,2.55,1.84,1.84,0,0,1-.94.25Z"/><path class="cls-1" d="M118.33,50.13a4.4,4.4,0,0,1-3.87-2.26L93.68,11.26a4.39,4.39,0,0,1-.42-3.38A4.49,4.49,0,0,1,95.35,5.2L103.51.57a4.44,4.44,0,0,1,6,1.69l3.2,5.62a1.87,1.87,0,1,1-3.2,1.94l-.06-.09L106.31,4.1a.66.66,0,0,0-.42-.33.68.68,0,0,0-.54.06L97.2,8.45a.71.71,0,0,0-.33.44.61.61,0,0,0,.06.51L117.71,46a.66.66,0,0,0,.42.33.73.73,0,0,0,.54-.06l8.15-4.62a.72.72,0,0,0,.27-1l-2.57-4.53a1.87,1.87,0,0,1,3.26-1.84l2.56,4.52a4.45,4.45,0,0,1-1.67,6.06l-8.16,4.63a4.52,4.52,0,0,1-2.18.57Z"/><path class="cls-1" d="M116.65,20.42a1.87,1.87,0,0,1-1.63-1l-1.61-2.86a1.87,1.87,0,0,1,3.26-1.83l1.61,2.86a1.88,1.88,0,0,1-.72,2.55A1.93,1.93,0,0,1,116.65,20.42Z"/><path class="cls-1" d="M13.35,60.55A4.3,4.3,0,0,1,12,60.33L3.06,57.4A4.46,4.46,0,0,1,.22,51.79h0l13.17-40A4.45,4.45,0,0,1,19,9l8.9,2.93a4.46,4.46,0,0,1,2.84,5.61l-13.16,40A4.45,4.45,0,0,1,13.35,60.55Zm4.27-48.06a.71.71,0,0,0-.68.48L3.78,53a.68.68,0,0,0,0,.54.65.65,0,0,0,.41.35l8.9,2.94a.77.77,0,0,0,.54,0,.73.73,0,0,0,.36-.41l13.16-40a.71.71,0,0,0-.45-.89l-8.9-2.92a.87.87,0,0,0-.22,0Z"/><path class="cls-1" d="M96.54,77.49a7.92,7.92,0,0,1-4.28-1.25L71.44,63.41a1.87,1.87,0,0,1,1.81-3.28l.16.1L94.26,73.07a4.22,4.22,0,0,0,4.76-7l-.27-.17-19-11.35a1.87,1.87,0,1,1,1.86-3.25l0,0,19,11.37a8,8,0,0,1-4.15,14.76Z"/></g></g></svg>