<svg xmlns="http://www.w3.org/2000/svg" viewBox="0 0 74 118"><defs><style>.cls-1{fill:#00cec8;}</style></defs><g id="Capa_2" data-name="Capa 2"><g id="Capa_2-2" data-name="Capa 2"><g id="Layer_6" data-name="Layer 6"><path class="cls-1" d="M58.09,49.06a15,15,0,0,0,1.53-4.34A15.27,15.27,0,0,0,56.07,31.8a24.53,24.53,0,0,1-2.49-3.36,7.54,7.54,0,0,0,2.49-5.6,7.62,7.62,0,0,0-5.71-7.37V1.9A1.9,1.9,0,0,0,48.46,0H25.62a1.9,1.9,0,0,0-1.9,1.9V17.45a21.86,21.86,0,0,1-5.63,14.27L18,31.8a15.23,15.23,0,0,0-3.8,10.07A15.07,15.07,0,0,0,16,49a15.21,15.21,0,0,0,0,19.9,15.17,15.17,0,0,0,1.31,16.4,7.53,7.53,0,0,0-1.22,4.11,7.63,7.63,0,0,0,7.28,7.61,19.26,19.26,0,0,1,.34,3.49V116.1a1.9,1.9,0,0,0,1.9,1.9H48.46a1.9,1.9,0,0,0,1.9-1.9V100.55A21.82,21.82,0,0,1,56.07,86.2a15.23,15.23,0,0,0,3.54-12.92,14.73,14.73,0,0,0-1.52-4.34,15.23,15.23,0,0,0,0-19.88ZM20.78,34.41l.08-.08a25.64,25.64,0,0,0,6.66-16.88V3.81h19V17.13A1.91,1.91,0,0,0,48.46,19,3.79,3.79,0,0,1,50.2,26.2a1.9,1.9,0,0,0-.81,2.56,27.52,27.52,0,0,0,3.83,5.56A11.46,11.46,0,0,1,55.87,44a11.33,11.33,0,0,1-8.87,9,11.48,11.48,0,0,1-6.63-.6,15.17,15.17,0,0,0,4.28-10.58h-3.8a11.42,11.42,0,1,1-20.07-7.46ZM16.1,59a11.26,11.26,0,0,1,2.22-6.75A15.15,15.15,0,0,0,37,55.05a15.27,15.27,0,0,0,10.7,1.74,15,15,0,0,0,8-4.52,11.39,11.39,0,0,1,0,13.46,15,15,0,0,0-8-4.52A15.29,15.29,0,0,0,37,63a15.15,15.15,0,0,0-18.72,2.8A11.37,11.37,0,0,1,16.1,59ZM53.22,83.68a25.63,25.63,0,0,0-6.67,16.87v13.64h-19V100.55a24.24,24.24,0,0,0-.79-6,1.92,1.92,0,0,0-2.26-1.37,4.65,4.65,0,0,1-.75.07,3.82,3.82,0,0,1-3.81-3.81A3.76,3.76,0,0,1,21.1,86.7a1.89,1.89,0,0,0,.6-1.33A1.93,1.93,0,0,0,21.17,84a11.42,11.42,0,1,1,19.68-7.87h3.8a15.13,15.13,0,0,0-4.29-10.58A11.61,11.61,0,0,1,47,64.94a11.43,11.43,0,0,1,6.22,18.74Z"/><path class="cls-1" d="M29.43,51.39V47.58a5.71,5.71,0,0,1-5.71-5.71H19.91A9.53,9.53,0,0,0,29.43,51.39Z"/><path class="cls-1" d="M19.91,76.13h3.81a5.71,5.71,0,0,1,5.71-5.71V66.61A9.53,9.53,0,0,0,19.91,76.13Z"/><path class="cls-1" d="M3.33,37.51,6,34.82l5.71,5.71L9,43.22Z"/><path class="cls-1" d="M3.33,80.49,9,74.78l2.69,2.69L6,83.18Z"/><path class="cls-1" d="M0,51.19l1.7-3.41,7.61,3.81L7.61,55Z"/><path class="cls-1" d="M0,66.79,7.61,63l1.7,3.4L1.7,70.19Z"/><path class="cls-1" d="M62.33,40.53,68,34.82l2.69,2.69L65,43.22Z"/><path class="cls-1" d="M62.32,77.48,65,74.79l5.71,5.71L68,83.19Z"/><path class="cls-1" d="M64.69,51.59l7.61-3.81,1.7,3.4L66.39,55Z"/><path class="cls-1" d="M64.69,66.44,66.39,63,74,66.84l-1.7,3.4Z"/></g></g></g></svg>