<svg xmlns="http://www.w3.org/2000/svg" viewBox="0 0 100.03 117.6"><defs><style>.cls-1{fill:#00cec8;}</style></defs><g id="Capa_2" data-name="Capa 2"><g id="Capa_2-2" data-name="Capa 2"><path class="cls-1" d="M73.52,103.8,60.43,99.74a4.26,4.26,0,0,1-2.87-5.06l12-46.4A13.45,13.45,0,0,0,68.07,38L46.26.89A1.86,1.86,0,0,0,44.77,0h-43A1.76,1.76,0,0,0,.06,2.18C4.82,20.92,15.23,29.05,24.35,36.29c4.56,3.56,8.92,7,12.09,11.5-3.67,8.92-3.76,20.62-3.86,31-.1,8.23-.1,16.06-2.09,19.92-3,5.75-3.37,11.21-1.09,14.87a8.27,8.27,0,0,0,7.34,4c6.74,0,8.43-1.68,14.28-1.78a32.77,32.77,0,0,1,8.82,1,27.44,27.44,0,0,0,7.44.79,10.41,10.41,0,0,0,9.51-6.25,5.36,5.36,0,0,0-3.27-7.53Zm.2,6A7.21,7.21,0,0,1,67.28,114a27.18,27.18,0,0,1-6.65-.69A38.83,38.83,0,0,0,51,112.23c-6.45,0-7.94,1.68-14.28,1.78a4.77,4.77,0,0,1-4.36-2.28c-1.59-2.58-1.19-6.94,1.19-11.5S36,87.84,36.05,78.72c.09-10.41.19-22.21,4-30.54a2,2,0,0,0-.1-1.68c-3.47-5.26-8.23-9-13.28-13.09-8.73-6.94-17.85-14-22.51-30H43.78L65.09,39.46a10,10,0,0,1,1.09,7.73L54.29,93.79A7.7,7.7,0,0,0,59.44,103l13.09,4.06a2,2,0,0,1,1.19,2.78Z"/><path class="cls-1" d="M14.14,12.19a1.87,1.87,0,0,0-2.38-.69,1.87,1.87,0,0,0-.7,2.38c.7,1.19,1.69,2.68,2.68,4.16a1.74,1.74,0,0,0,2.48.3A1.83,1.83,0,0,0,16.61,16C15.72,14.77,14.93,13.48,14.14,12.19Z"/><path class="cls-1" d="M42.09,39.26a5,5,0,0,0,3.08,6.44,4.92,4.92,0,0,0,5.35-1.29l1.39-1.48,1.88.49a5,5,0,0,0,3-9.51L53.4,32.62,37.83,8.82a1.76,1.76,0,0,0-2.38-.59A1.75,1.75,0,0,0,35,10.71L50.82,35a2.77,2.77,0,0,0,.79.69l4,1.59a1.49,1.49,0,0,1,1,1.38,1.53,1.53,0,0,1-1.89,1.49l-2.87-.69a1.77,1.77,0,0,0-1.69.49L48,42a1.56,1.56,0,0,1-2.18.09,1.54,1.54,0,0,1-.4-1.68L46.75,37a1.75,1.75,0,0,0-.29-1.69L32.28,16.85a1.74,1.74,0,0,0-2.48-.29,1.72,1.72,0,0,0-.3,2.38L43.08,36.68Z"/><path class="cls-1" d="M59.44,54.63a5,5,0,0,0-6.74-7.34l-1.49,1.19-1.88-.79a5,5,0,0,0-5.45,8.23l2,2L40.8,89.72a1.77,1.77,0,0,0,1.49,2,1.83,1.83,0,0,0,2-1.38L49.53,57.6a1.72,1.72,0,0,0-.5-1.49l-2.57-2.67a1.55,1.55,0,0,1,0-2.18,1.51,1.51,0,0,1,1.68-.3L51,52.15A2,2,0,0,0,52.7,52L55,50.17a1.57,1.57,0,0,1,2.18.29,1.51,1.51,0,0,1-.1,2l-3,3.07a4,4,0,0,0-.5.89L49.23,84.17a1.75,1.75,0,0,0,3.47.5L57.06,57.5Z"/><path class="cls-1" d="M100,48.38a1.79,1.79,0,0,0-2.08-1.29L89,49.17l-1.39-3a1.8,1.8,0,0,0-2-.89l-8.23,2a1.73,1.73,0,0,0,.79,3.37L85,49l1.39,3a2,2,0,0,0,2,1L98.7,50.56A2,2,0,0,0,100,48.38Z"/><path class="cls-1" d="M76,36a1.85,1.85,0,0,0,2.48-.3L82.74,30l3,1.39a1.7,1.7,0,0,0,2.08-.5l6.54-8.33a1.81,1.81,0,0,0-.2-2.47,1.74,1.74,0,0,0-2.48.29l-5.75,7.24-3-1.39a1.7,1.7,0,0,0-2.08.5L75.7,33.51A1.75,1.75,0,0,0,76,36Z"/><path class="cls-1" d="M90.47,35.29,86.9,38.76,84.13,37a1.65,1.65,0,0,0-2.18.2l-3.27,3.37a1.73,1.73,0,0,0,0,2.48,1.63,1.63,0,0,0,2.38,0l2.28-2.38,2.77,1.78a1.78,1.78,0,0,0,2.18-.2l4.56-4.46a1.82,1.82,0,0,0,.1-2.48A1.74,1.74,0,0,0,90.47,35.29Z"/></g></g></svg>