<svg xmlns="http://www.w3.org/2000/svg" viewBox="0 0 315 114.91"><defs><style>.cls-1{isolation:isolate;}.cls-2{fill:#1d2b4e;}.cls-3{fill:none;stroke:#cb5f22;stroke-miterlimit:10;stroke-width:0.87px;mix-blend-mode:multiply;}.cls-4{fill:#cb5f24;}</style></defs><g class="cls-1"><g id="Capa_1" data-name="Capa 1"><path class="cls-2" d="M138.94,76.45h-.07L133.3,92h-1.66l-5.38-15.57h-.06L124,91.7h-4.83l4.14-25.22h3.39l6.06,16.19,5.8-16.19H142l3.68,25.22h-4.82Z" transform="translate(-10.9 -26.33)"/><path class="cls-2" d="M160.44,92.35c-7.5,0-12.15-5.74-12.15-13s4.82-12.9,12.15-12.9,12.15,5.6,12.15,12.9S167.93,92.35,160.44,92.35Zm0-21.15c-4.53,0-7.2,4-7.2,8,0,3.77,1.89,8.43,7.2,8.43s7.2-4.66,7.2-8.43C167.64,75.21,165,71.2,160.44,71.2Z" transform="translate(-10.9 -26.33)"/><path class="cls-2" d="M176.56,66.48H180L193,83.65H193V67.13h4.79V92.18h-3.46L181.42,75h-.07V91.7h-4.79Z" transform="translate(-10.9 -26.33)"/><path class="cls-2" d="M210.9,91.7h-4.79V71.3h-5V67.13h14.69V71.3H210.9Z" transform="translate(-10.9 -26.33)"/><path class="cls-2" d="M224,71.3v5.41h7.62v4.17H224v6.65H232V91.7H219.24V67.13H232V71.3Z" transform="translate(-10.9 -26.33)"/><path class="cls-2" d="M259.38,72.54a4.44,4.44,0,0,0-3.69-2,2.92,2.92,0,0,0-3,2.77c0,4.14,9.74,2.41,9.74,10.65,0,4.92-3.06,8.41-8.08,8.41-3.39,0-5.87-2-7.56-4.79l3.09-3a5.05,5.05,0,0,0,4.44,3.58,3.28,3.28,0,0,0,3.16-3.55c0-2.54-2.35-3.26-4.27-4-3.16-1.3-5.48-2.9-5.48-6.71a7.15,7.15,0,0,1,7.17-7.36,10,10,0,0,1,6.71,2.74Z" transform="translate(-10.9 -26.33)"/><path class="cls-2" d="M271.36,91.7h-4.79V67.13h4.79Z" transform="translate(-10.9 -26.33)"/><path class="cls-2" d="M287.46,92.35c-7.5,0-12.16-5.74-12.16-13s4.83-12.9,12.16-12.9,12.15,5.6,12.15,12.9S295,92.35,287.46,92.35Zm0-21.15c-4.53,0-7.2,4-7.2,8,0,3.77,1.89,8.43,7.2,8.43s7.2-4.66,7.2-8.43C294.66,75.21,292,71.2,287.46,71.2ZM291,62.28l-2.38,2.35-1.11-.69,1.88-2.64Z" transform="translate(-10.9 -26.33)"/><path class="cls-2" d="M303.58,66.48H307L320,83.65H320V67.13h4.79V92.18h-3.45L308.44,75h-.07V91.7h-4.79Z" transform="translate(-10.9 -26.33)"/><path class="cls-2" d="M131,45.88A6,6,0,0,0,126.75,44a5.75,5.75,0,0,0,0,11.5A6.08,6.08,0,0,0,131,53.7v1.92a7.18,7.18,0,0,1-11.39-5.77,7.27,7.27,0,0,1,7.24-7.25A6.72,6.72,0,0,1,131,44Z" transform="translate(-10.9 -26.33)"/><path class="cls-2" d="M134.53,42.84h7.21v1.44h-5.66v4.13h5.5v1.44h-5.5V55.3h5.66v1.44h-7.21Z" transform="translate(-10.9 -26.33)"/><path class="cls-2" d="M145.64,42.51l10.59,11.1V42.84h1.55V57a.14.14,0,0,1-.24.09L146.94,46V56.74h-1.55V42.61A.15.15,0,0,1,145.64,42.51Z" transform="translate(-10.9 -26.33)"/><path class="cls-2" d="M165.29,56.74h-1.55V44.28h-3.36V42.84h8.3v1.44h-3.39Z" transform="translate(-10.9 -26.33)"/><path class="cls-2" d="M172.74,56.74h-1.55V42.84h2c2.63,0,5.09.7,5.09,3.84a3.63,3.63,0,0,1-3.49,3.83l4.43,6.23h-1.9l-4.21-6.1h-.38Zm0-7.46h.48c1.75,0,3.52-.34,3.52-2.49s-1.68-2.51-3.54-2.51h-.46Z" transform="translate(-10.9 -26.33)"/><path class="cls-2" d="M195.89,49.81a7.25,7.25,0,1,1-7.24-7.21A7.2,7.2,0,0,1,195.89,49.81Zm-12.94,0a5.7,5.7,0,1,0,5.7-5.75A5.75,5.75,0,0,0,183,49.79Z" transform="translate(-10.9 -26.33)"/><path class="cls-2" d="M216.25,55.62A7.34,7.34,0,0,1,212.07,57a7.19,7.19,0,1,1,7.24-7.13,6.88,6.88,0,0,1-2,4.9l2.08,2.12h-2Zm0-2a5.39,5.39,0,0,0,1.53-3.86,5.7,5.7,0,1,0-5.69,5.75,5.35,5.35,0,0,0,3.09-1l-3.35-3.37h2Z" transform="translate(-10.9 -26.33)"/><path class="cls-2" d="M223.85,51.12a5.13,5.13,0,0,0,.61,3.1,3.58,3.58,0,0,0,2.8,1.32A3.69,3.69,0,0,0,230,54.31a4.78,4.78,0,0,0,.68-3.19V42.84h1.55v8.7A4.89,4.89,0,0,1,231,55.4,5.12,5.12,0,0,1,227.26,57a5.2,5.2,0,0,1-3.59-1.42,4.89,4.89,0,0,1-1.37-4v-8.7h1.55Z" transform="translate(-10.9 -26.33)"/><path class="cls-2" d="M237.48,56.74h-1.55V42.84h1.55Z" transform="translate(-10.9 -26.33)"/><path class="cls-2" d="M242.77,56.74h-1.55V42.84h2c2.63,0,5.09.7,5.09,3.84a3.63,3.63,0,0,1-3.49,3.83l4.43,6.23h-1.9l-4.21-6.1h-.38Zm0-7.46h.48c1.75,0,3.52-.34,3.52-2.49s-1.68-2.51-3.54-2.51h-.46Z" transform="translate(-10.9 -26.33)"/><path class="cls-2" d="M253.65,51.12a5.13,5.13,0,0,0,.61,3.1,3.55,3.55,0,0,0,2.8,1.32,3.71,3.71,0,0,0,2.73-1.23,4.83,4.83,0,0,0,.68-3.19V42.84H262v8.7a4.89,4.89,0,0,1-1.22,3.86A5.12,5.12,0,0,1,257.06,57a5.22,5.22,0,0,1-3.6-1.42,4.92,4.92,0,0,1-1.36-4v-8.7h1.55Zm5-10.52-1.57,1.67-.52-.31,1.23-1.77Z" transform="translate(-10.9 -26.33)"/><path class="cls-2" d="M267.24,56.74h-1.55V42.84h2c2.63,0,5.08.7,5.08,3.84a3.62,3.62,0,0,1-3.48,3.83l4.42,6.23h-1.89l-4.21-6.1h-.38Zm0-7.46h.47c1.76,0,3.53-.34,3.53-2.49s-1.68-2.51-3.54-2.51h-.46Z" transform="translate(-10.9 -26.33)"/><path class="cls-2" d="M289.53,49.76a6.65,6.65,0,0,1-1.44,4.9A6.89,6.89,0,0,1,282.94,57a7.19,7.19,0,1,1,6-11.37l-1.13,1A5.65,5.65,0,0,0,283,44a5.77,5.77,0,0,0-5.68,5.81A5.6,5.6,0,0,0,279,53.77a5.83,5.83,0,0,0,4,1.77c2.41,0,5-1.77,5-4.35h-4.13V49.76Z" transform="translate(-10.9 -26.33)"/><path class="cls-2" d="M294.23,56.74h-1.55V42.84h1.55Z" transform="translate(-10.9 -26.33)"/><path class="cls-2" d="M308.57,45.88A5.94,5.94,0,0,0,304.33,44a5.75,5.75,0,0,0,0,11.5,6,6,0,0,0,4.2-1.84v1.92a7.18,7.18,0,0,1-11.39-5.77,7.27,7.27,0,0,1,7.25-7.25A6.71,6.71,0,0,1,308.57,44Z" transform="translate(-10.9 -26.33)"/><path class="cls-2" d="M325.9,49.81a7.24,7.24,0,1,1-7.24-7.21A7.2,7.2,0,0,1,325.9,49.81Zm-12.94,0a5.7,5.7,0,1,0,5.7-5.75A5.75,5.75,0,0,0,313,49.79Z" transform="translate(-10.9 -26.33)"/><polyline class="cls-3" points="107.42 74.34 297.11 74.28 299.45 77.31 303.6 70.94 306.94 75.08 314.05 75.08"/><path class="cls-4" d="M93.15,108.23a28.89,28.89,0,0,0,6.74-9.41,39.36,39.36,0,0,1-6.77,9.39Z" transform="translate(-10.9 -26.33)"/><path class="cls-4" d="M113.9,84.17c0-24.63-20.41-44.81-45-44.81s-45,20.18-45,44.81c0,25.54,20.18,44.81,45,44.81a44.68,44.68,0,0,0,24.52-7.64l7.41,7.64h13l-13.34-13.11A43.77,43.77,0,0,0,113.9,84.17ZM93.15,108.23l-1,.92a73.71,73.71,0,0,1-6.18,4.9,33.77,33.77,0,0,1-17.1,4.9A34.52,34.52,0,0,1,34.54,84.17c0-18.93,14.14-34.77,34.32-34.77s34.32,15.84,34.32,34.77a35.92,35.92,0,0,1-3.29,14.65v0A28.89,28.89,0,0,1,93.15,108.23Z" transform="translate(-10.9 -26.33)"/><path class="cls-2" d="M61.94,77.71c2.2,1.47,4,1.34,4.52-.13a18.9,18.9,0,0,1-2.21-.9,2.11,2.11,0,0,1-1.17-2.28,1.73,1.73,0,0,0-1.32-2.1A14.86,14.86,0,0,0,60,71.88H57.1c-1.05.12-2.1.24-3.15.38-2.63.35-5.26.73-7.89,1.07-1.52.19-3.05.32-4.57.47l-1.39.12v.13a3.67,3.67,0,0,0,3.42,2.2,17.59,17.59,0,0,0,5.32-.49c2.71-.59,5.41-1.28,8.12-1.89.91-.2,1.84-.26,2.76-.39l.06.3L43.17,77.93a2.12,2.12,0,0,0,2.26,1.74,13.07,13.07,0,0,0,5.11-1.21c2.66-1.07,5.29-2.22,7.94-3.3a12.3,12.3,0,0,1,1.61-.43l.09.28L47.35,80.63a2.62,2.62,0,0,0,3.29,1.28,12.76,12.76,0,0,0,4.16-2.18c1.42-1,2.82-2,4.25-3a12.88,12.88,0,0,1,1.47-.78l.15.24-9,6.83a2,2,0,0,0,2.88.4,27.23,27.23,0,0,0,3.29-2.89c1-.94,1.8-2,2.7-3a4.74,4.74,0,0,1,.49-.4l.13.14-6.07,7.62a9.94,9.94,0,0,0,1.07.19,2.84,2.84,0,0,0,2.46-1.5c.9-1.35,1.68-2.8,2.49-4.22C61.38,78.81,61.65,78.26,61.94,77.71Z" transform="translate(-10.9 -26.33)"/><path class="cls-2" d="M93.5,73.54c-2.38-.29-4.75-.63-7.13-.94-1.73-.22-3.46-.4-5.19-.61-.23,0-.46-.07-.69-.11H77.68a17.52,17.52,0,0,0-1.89.5,1.67,1.67,0,0,0-1.18,1.83A2.41,2.41,0,0,1,72.86,77a14.92,14.92,0,0,1-1.68.52,2,2,0,0,0,1.31,1.12,3.49,3.49,0,0,0,3.29-1c.49.95.94,1.86,1.42,2.75a13.19,13.19,0,0,0,2.59,3.84,2.36,2.36,0,0,0,2.81.52c-2-2.56-4-5.06-6-7.57l.27-.24c.42.48.82,1,1.24,1.44,1.13,1.25,2.21,2.55,3.42,3.71a8.73,8.73,0,0,0,2.38,1.53A1.75,1.75,0,0,0,86.09,83l-9-6.83.12-.2a5.13,5.13,0,0,1,.8.32c.68.43,1.36.87,2,1.33,1.56,1.08,3.08,2.2,4.66,3.25A6.93,6.93,0,0,0,87.83,82a2.34,2.34,0,0,0,2.5-1.43L77.53,75l.11-.31c.75.23,1.53.39,2.25.69,2.63,1.07,5.24,2.22,7.88,3.28a11.26,11.26,0,0,0,4.57,1,2,2,0,0,0,2.18-1.75C89,76.46,83.42,75.32,78,73.61a3.28,3.28,0,0,1,1.21,0c2.14.45,4.27.91,6.4,1.4a35.73,35.73,0,0,0,7.53,1.28c1.86,0,3.64-.23,4.51-2.25v-.13C96.25,73.8,94.87,73.71,93.5,73.54Z" transform="translate(-10.9 -26.33)"/><path class="cls-2" d="M67.57,76.67a.77.77,0,0,1,.41.76c0,2.85.1,5.7.16,8.55,0,1.25,0,1.25,1.28,1.55h.08c0-.16,0-.33,0-.5q.1-4.78.2-9.57a.76.76,0,0,1,.39-.77,2.32,2.32,0,0,0,1-2.7,2.43,2.43,0,0,0-2.29-1.72,2.47,2.47,0,0,0-2.29,1.63A2.36,2.36,0,0,0,67.57,76.67Z" transform="translate(-10.9 -26.33)"/><path class="cls-2" d="M71.66,94.52a15,15,0,0,0-2.08-.93c-1.1-.43-2.23-.81-3.33-1.26-.24-.11-.56-.44-.56-.65s.31-.54.57-.68a10,10,0,0,1,1.41-.48c-1-.31-1.84-.6-2.72-.87a.53.53,0,0,0-.35,0,2.2,2.2,0,0,0-1.36,1.85,2.79,2.79,0,0,0,1.9,2.62c1.25.57,2.58,1,3.87,1.43a9.8,9.8,0,0,1,1.61.75c.64.38.59.82-.09,1.16-.21.11-.43.19-.66.3a9.43,9.43,0,0,1,1.18.44,11.4,11.4,0,0,1,1.07.69l.16-.08A2.58,2.58,0,0,0,71.66,94.52Z" transform="translate(-10.9 -26.33)"/><path class="cls-2" d="M70.5,98.39c-.38-.14-.78-.2-1.17-.31a23.25,23.25,0,0,1-2.24-.68c-.53-.22-.55-.63-.1-1a11.18,11.18,0,0,1,1.08-.7c-.72-.25-1.41-.51-2.12-.72a.65.65,0,0,0-.55.09c-1.18,1.22-1.39,3.19.63,4a22.71,22.71,0,0,0,2.64.69c.45.13.89.3,1.5.51l-.74.7,1.57,1a2.15,2.15,0,0,0,.92-2.15A1.89,1.89,0,0,0,70.5,98.39Z" transform="translate(-10.9 -26.33)"/><path class="cls-2" d="M69.75,101.63a14.66,14.66,0,0,1-1.56-.85c-.2-.13-.28-.43-.51-.81l-1.74-.4a2.29,2.29,0,0,0,.85,2.56c.49.3,1,.52,1.53.77,1.44.72,1.64,1.34.86,2.71a.49.49,0,0,0,0,.15l.58.63a14,14,0,0,0,1-1.34A2.18,2.18,0,0,0,69.75,101.63Z" transform="translate(-10.9 -26.33)"/><path class="cls-2" d="M68.27,103.44l-1.49-.81c-.85,1.81,1,4.38,3.33,4.56C69,106.16,67.64,105.3,68.27,103.44Z" transform="translate(-10.9 -26.33)"/><path class="cls-2" d="M69.45,92.09c.09-1.19.09-1.19-1.07-1.42l-.11,0c-.11,2.42-.19,1.85,1.13,2.27C69.42,92.67,69.43,92.38,69.45,92.09Z" transform="translate(-10.9 -26.33)"/><path class="cls-2" d="M68.52,107.19l.19,4.15H69c0-1.12.07-2.23.15-3.35C69.2,107.53,69.06,107.27,68.52,107.19Z" transform="translate(-10.9 -26.33)"/><path class="cls-2" d="M68.37,95.88v1.66l.93.2C69.45,95.93,69.52,96.09,68.37,95.88Z" transform="translate(-10.9 -26.33)"/><path class="cls-2" d="M68.41,103.62l.26,1.77C69.33,104.48,69.25,104,68.41,103.62Z" transform="translate(-10.9 -26.33)"/><path class="cls-2" d="M69.45,100.33l-1-.22-.13.18a1.94,1.94,0,0,0,.54.39C69,100.71,69.19,100.51,69.45,100.33Z" transform="translate(-10.9 -26.33)"/><path class="cls-2" d="M74,90.27a4.83,4.83,0,0,0-1.24-.88c-1.06-.47-2.15-.89-3.25-1.27a17.48,17.48,0,0,1-5.11-2.26,4.19,4.19,0,0,1-1.25-1.55c-.49-1.15.07-1.84,1.3-1.84a14.47,14.47,0,0,0,2.28-.14c.94-.14,1.12-.68.45-1.34a10.29,10.29,0,0,0-1.55-1.22,2.17,2.17,0,0,0-2.3-.1c-2.11,1.09-3.81,3.94-1.65,6.78a8.35,8.35,0,0,0,4.18,2.8c1.91.64,3.85,1.18,5.77,1.79a4.48,4.48,0,0,1,.81.49c-.73,1-1.77,1.16-2.82,1.54.93.39,1.74.74,2.57,1.06a.75.75,0,0,0,.53,0A3.17,3.17,0,0,0,74.43,92,1.68,1.68,0,0,0,74,90.27Zm-9-10a.42.42,0,0,1,0,.84.42.42,0,0,1,0-.84Z" transform="translate(-10.9 -26.33)"/><path class="cls-2" d="M74.33,79.62a2.46,2.46,0,0,0-.93-.2,4,4,0,0,0-2.77,1.52c-.22.2-.46.65-.37.85a1.19,1.19,0,0,0,.84.54c.86.11,1.74.11,2.6.14.62,0,1,.3,1,.91a2.85,2.85,0,0,1-.34,1.43A4.63,4.63,0,0,1,73,86.12c-1,.58-2,1-3,1.55.9.32,1.8.65,2.7,1a.94.94,0,0,0,.64,0,7.37,7.37,0,0,0,2.8-2.27A4.42,4.42,0,0,0,74.33,79.62Zm-1.79,1.45a.42.42,0,0,1,0-.84.42.42,0,0,1,0,.84Z" transform="translate(-10.9 -26.33)"/><path class="cls-2" d="M68.36,132.38A48.6,48.6,0,1,1,91.56,41.1L96.92,34a57.59,57.59,0,1,0,.7,99l-5.38-6.85A48.28,48.28,0,0,1,68.36,132.38Z" transform="translate(-10.9 -26.33)"/><path class="cls-2" d="M119.44,110.48h5.33v1.07h-4v3.29h3.74v1.06h-3.74v4.48h-1.28Z" transform="translate(-10.9 -26.33)"/><path class="cls-2" d="M128.05,115.49c0-.84,0-1.56-.06-2.22h1.13l0,1.4h.06a2.13,2.13,0,0,1,2-1.56,1.4,1.4,0,0,1,.37,0v1.22a1.94,1.94,0,0,0-.44,0,1.82,1.82,0,0,0-1.74,1.66,5,5,0,0,0,0,.6v3.79h-1.28Z" transform="translate(-10.9 -26.33)"/><path class="cls-2" d="M139.65,118.68a9.78,9.78,0,0,0,.12,1.7H138.6l-.11-.9h0a2.65,2.65,0,0,1-2.18,1.06,2,2,0,0,1-2.17-2c0-1.72,1.53-2.66,4.28-2.64v-.15a1.47,1.47,0,0,0-1.62-1.65,3.57,3.57,0,0,0-1.85.53l-.3-.85a4.44,4.44,0,0,1,2.34-.63c2.18,0,2.7,1.48,2.7,2.91Zm-1.24-1.93c-1.42,0-3,.22-3,1.6a1.15,1.15,0,0,0,1.22,1.24,1.76,1.76,0,0,0,1.72-1.19,1.19,1.19,0,0,0,.08-.41Z" transform="translate(-10.9 -26.33)"/><path class="cls-2" d="M148.69,120.12a4.85,4.85,0,0,1-2,.42,3.39,3.39,0,0,1-3.54-3.64,3.61,3.61,0,0,1,3.82-3.78,4.25,4.25,0,0,1,1.79.37l-.3,1a2.91,2.91,0,0,0-1.49-.34,2.47,2.47,0,0,0-2.52,2.69,2.44,2.44,0,0,0,2.47,2.66,3.71,3.71,0,0,0,1.59-.35Z" transform="translate(-10.9 -26.33)"/><path class="cls-2" d="M153.83,111.56v1.71h1.85v1h-1.85v3.84c0,.88.25,1.38,1,1.38a2.38,2.38,0,0,0,.75-.09l.06,1a3.2,3.2,0,0,1-1.15.19,1.75,1.75,0,0,1-1.39-.56,2.61,2.61,0,0,1-.5-1.85v-3.88h-1.11v-1h1.11V112Z" transform="translate(-10.9 -26.33)"/><path class="cls-2" d="M165,118.44c0,.74,0,1.38.06,1.94h-1.15l-.07-1.16h0a2.69,2.69,0,0,1-2.35,1.32c-1.12,0-2.46-.61-2.46-3.11v-4.16h1.29v3.94c0,1.35.42,2.26,1.59,2.26a1.87,1.87,0,0,0,1.71-1.18,1.94,1.94,0,0,0,.11-.66v-4.36H165Z" transform="translate(-10.9 -26.33)"/><path class="cls-2" d="M169,115.49c0-.84,0-1.56-.06-2.22h1.13l.05,1.4h.06a2.13,2.13,0,0,1,2-1.56,1.37,1.37,0,0,1,.36,0v1.22a1.89,1.89,0,0,0-.44,0,1.81,1.81,0,0,0-1.73,1.66,3.47,3.47,0,0,0-.06.6v3.79H169Z" transform="translate(-10.9 -26.33)"/><path class="cls-2" d="M180.6,118.68a9.78,9.78,0,0,0,.12,1.7h-1.18l-.1-.9h-.05a2.63,2.63,0,0,1-2.17,1.06,2,2,0,0,1-2.18-2c0-1.72,1.53-2.66,4.28-2.64v-.15a1.47,1.47,0,0,0-1.62-1.65,3.57,3.57,0,0,0-1.85.53l-.29-.85a4.43,4.43,0,0,1,2.33-.63c2.18,0,2.71,1.48,2.71,2.91Zm-1.25-1.93c-1.41,0-3,.22-3,1.6a1.14,1.14,0,0,0,1.22,1.24,1.78,1.78,0,0,0,1.72-1.19,1.47,1.47,0,0,0,.07-.41Z" transform="translate(-10.9 -26.33)"/><path class="cls-2" d="M184.39,119.06a3.35,3.35,0,0,0,1.7.51c.94,0,1.38-.47,1.38-1.06s-.36-1-1.32-1.3c-1.28-.46-1.88-1.16-1.88-2a2.19,2.19,0,0,1,2.45-2.08,3.48,3.48,0,0,1,1.75.44l-.32.94a2.73,2.73,0,0,0-1.46-.41c-.76,0-1.19.44-1.19,1s.43.85,1.36,1.2c1.23.47,1.86,1.09,1.86,2.15,0,1.25-1,2.14-2.66,2.14a4,4,0,0,1-2-.5Z" transform="translate(-10.9 -26.33)"/><path class="cls-2" d="M197.73,113.27l1.55,4.2c.17.47.34,1,.46,1.46h0c.13-.43.28-1,.45-1.49l1.42-4.17H203l-1.94,5.07c-.92,2.44-1.56,3.69-2.44,4.45a3.5,3.5,0,0,1-1.58.84l-.33-1.09a3.33,3.33,0,0,0,1.13-.63,3.82,3.82,0,0,0,1.09-1.44.89.89,0,0,0,.1-.31,1.39,1.39,0,0,0-.08-.34l-2.63-6.55Z" transform="translate(-10.9 -26.33)"/><path class="cls-2" d="M216.22,115.74h-3.85v3.57h4.29v1.07H211.1v-9.9h5.34v1.07h-4.07v3.13h3.85Z" transform="translate(-10.9 -26.33)"/><path class="cls-2" d="M220,119.06a3.39,3.39,0,0,0,1.71.51c.94,0,1.38-.47,1.38-1.06s-.37-1-1.32-1.3c-1.28-.46-1.88-1.16-1.88-2a2.19,2.19,0,0,1,2.45-2.08,3.51,3.51,0,0,1,1.75.44l-.33.94a2.69,2.69,0,0,0-1.45-.41c-.76,0-1.19.44-1.19,1s.43.85,1.35,1.2c1.24.47,1.87,1.09,1.87,2.15,0,1.25-1,2.14-2.66,2.14a4,4,0,0,1-2-.5Z" transform="translate(-10.9 -26.33)"/><path class="cls-2" d="M227.86,115.59c0-.91,0-1.65-.06-2.32H229l.06,1.22h0a2.78,2.78,0,0,1,2.53-1.38c1.71,0,3,1.45,3,3.61,0,2.56-1.56,3.82-3.24,3.82a2.48,2.48,0,0,1-2.18-1.11h0v3.86h-1.28Zm1.28,1.9a4.34,4.34,0,0,0,.05.53,2,2,0,0,0,1.94,1.51c1.37,0,2.16-1.12,2.16-2.75,0-1.42-.75-2.64-2.11-2.64a2.07,2.07,0,0,0-2,1.6,2.26,2.26,0,0,0-.08.53Z" transform="translate(-10.9 -26.33)"/><path class="cls-2" d="M238.82,117.06a2.28,2.28,0,0,0,2.44,2.47,4.65,4.65,0,0,0,2-.37l.22.93a5.87,5.87,0,0,1-2.37.45,3.31,3.31,0,0,1-3.5-3.6c0-2.14,1.27-3.83,3.34-3.83,2.32,0,2.94,2,2.94,3.35a3.84,3.84,0,0,1-.05.6Zm3.79-.93a1.84,1.84,0,0,0-1.79-2.1,2.15,2.15,0,0,0-2,2.1Z" transform="translate(-10.9 -26.33)"/><path class="cls-2" d="M252.41,120.12a4.86,4.86,0,0,1-2,.42,3.39,3.39,0,0,1-3.54-3.64,3.62,3.62,0,0,1,3.82-3.78,4.3,4.3,0,0,1,1.8.37l-.3,1a3,3,0,0,0-1.5-.34,2.68,2.68,0,0,0,0,5.35,3.75,3.75,0,0,0,1.59-.35Z" transform="translate(-10.9 -26.33)"/><path class="cls-2" d="M257.24,111.27a.8.8,0,0,1-1.6,0,.79.79,0,0,1,.81-.81A.77.77,0,0,1,257.24,111.27Zm-1.44,9.11v-7.11h1.29v7.11Z" transform="translate(-10.9 -26.33)"/><path class="cls-2" d="M266.11,118.68a9.78,9.78,0,0,0,.12,1.7h-1.17l-.11-.9h0a2.65,2.65,0,0,1-2.18,1.06,2,2,0,0,1-2.17-2c0-1.72,1.53-2.66,4.28-2.64v-.15a1.47,1.47,0,0,0-1.62-1.65,3.57,3.57,0,0,0-1.85.53l-.3-.85a4.44,4.44,0,0,1,2.34-.63c2.17,0,2.7,1.48,2.7,2.91Zm-1.25-1.93c-1.41,0-3,.22-3,1.6a1.15,1.15,0,0,0,1.22,1.24,1.76,1.76,0,0,0,1.72-1.19,1.18,1.18,0,0,0,.07-.41Z" transform="translate(-10.9 -26.33)"/><path class="cls-2" d="M270.08,110h1.29v10.43h-1.29Z" transform="translate(-10.9 -26.33)"/><path class="cls-2" d="M276.87,111.27a.81.81,0,0,1-1.61,0,.79.79,0,0,1,.81-.81A.77.77,0,0,1,276.87,111.27Zm-1.44,9.11v-7.11h1.29v7.11Z" transform="translate(-10.9 -26.33)"/><path class="cls-2" d="M286.89,110v8.59c0,.64,0,1.36.06,1.84h-1.17l0-1.23h0a2.65,2.65,0,0,1-2.43,1.39c-1.72,0-3-1.45-3-3.61,0-2.37,1.45-3.82,3.19-3.82a2.36,2.36,0,0,1,2.14,1.08h0V110Zm-1.3,6.21a2,2,0,0,0-.06-.54,1.9,1.9,0,0,0-1.86-1.5c-1.34,0-2.13,1.18-2.13,2.75s.7,2.63,2.1,2.63a1.93,1.93,0,0,0,1.89-1.54,2,2,0,0,0,.06-.56Z" transform="translate(-10.9 -26.33)"/><path class="cls-2" d="M295.91,118.68a11,11,0,0,0,.11,1.7h-1.17l-.1-.9h-.05a2.65,2.65,0,0,1-2.17,1.06,2,2,0,0,1-2.18-2c0-1.72,1.53-2.66,4.28-2.64v-.15a1.47,1.47,0,0,0-1.62-1.65,3.57,3.57,0,0,0-1.85.53l-.29-.85a4.41,4.41,0,0,1,2.33-.63c2.18,0,2.71,1.48,2.71,2.91Zm-1.25-1.93c-1.41,0-3,.22-3,1.6a1.14,1.14,0,0,0,1.21,1.24,1.76,1.76,0,0,0,1.72-1.19,1.19,1.19,0,0,0,.08-.41Z" transform="translate(-10.9 -26.33)"/><path class="cls-2" d="M306,110v8.59c0,.64,0,1.36.06,1.84h-1.16l-.06-1.23h0a2.62,2.62,0,0,1-2.42,1.39c-1.72,0-3-1.45-3-3.61,0-2.37,1.45-3.82,3.19-3.82a2.38,2.38,0,0,1,2.14,1.08h0V110Zm-1.29,6.21a2,2,0,0,0-.06-.54,1.9,1.9,0,0,0-1.86-1.5c-1.34,0-2.13,1.18-2.13,2.75s.7,2.63,2.1,2.63a1.94,1.94,0,0,0,1.89-1.54,2,2,0,0,0,.06-.56Z" transform="translate(-10.9 -26.33)"/><path class="cls-2" d="M310.76,117.06a2.28,2.28,0,0,0,2.44,2.47,4.65,4.65,0,0,0,2-.37l.22.93a5.87,5.87,0,0,1-2.37.45,3.31,3.31,0,0,1-3.5-3.6c0-2.14,1.27-3.83,3.34-3.83,2.32,0,2.94,2,2.94,3.35a3.84,3.84,0,0,1-.05.6Zm3.79-.93a1.84,1.84,0,0,0-1.79-2.1,2.16,2.16,0,0,0-2,2.1Z" transform="translate(-10.9 -26.33)"/><path class="cls-2" d="M319.1,119.06a3.39,3.39,0,0,0,1.71.51c.94,0,1.38-.47,1.38-1.06s-.37-1-1.32-1.3c-1.28-.46-1.89-1.16-1.89-2a2.2,2.2,0,0,1,2.46-2.08,3.51,3.51,0,0,1,1.75.44l-.33.94a2.72,2.72,0,0,0-1.45-.41c-.76,0-1.19.44-1.19,1s.43.85,1.35,1.2c1.24.47,1.87,1.09,1.87,2.15,0,1.25-1,2.14-2.66,2.14a4,4,0,0,1-2-.5Z" transform="translate(-10.9 -26.33)"/></g></g></svg>